<svg xmlns="http://www.w3.org/2000/svg" viewBox="0 0 1200 900" width="1200" height="900" role="img" aria-label="Imagem de referência — PISCINA">
  <defs>
    <linearGradient id="f" x1="0" y1="0" x2="1" y2="1"><stop offset="0" stop-color="#1c1c1c"/><stop offset="1" stop-color="#0b0b0b"/></linearGradient>
    <radialGradient id="g" cx=".8" cy=".2" r=".7"><stop offset="0" stop-color="#ff6a00" stop-opacity=".28"/><stop offset="1" stop-color="#ff6a00" stop-opacity="0"/></radialGradient>
    <pattern id="p" width="40" height="40" patternUnits="userSpaceOnUse" patternTransform="rotate(45)"><rect width="2" height="40" fill="#ffffff" fill-opacity=".03"/></pattern>
  </defs>
  <rect width="1200" height="900" fill="url(#f)"/>
  <rect width="1200" height="900" fill="url(#p)"/>
  <rect width="1200" height="900" fill="url(#g)"/>
  <g transform="translate(360.0 150.0) scale(2.4)" opacity=".92"><g fill="none" stroke="#ff6a00" stroke-width="10" stroke-linecap="round"><path d="M24 120 q19-16 38 0 t38 0 t38 0 t38 0"/><path d="M24 150 q19-16 38 0 t38 0 t38 0 t38 0"/><path d="M70 104 V40 h26 M130 104 V40 h-26"/><path d="M70 64 h60 M70 86 h60"/></g></g>
  <text x="600.0" y="700.0" text-anchor="middle" font-family="Arial Black, Arial, sans-serif" font-size="64" fill="#f2f2f2" letter-spacing="4">PISCINA</text>
  <rect x="0" y="890" width="1200" height="10" fill="#ff6a00"/>
</svg>
